<?xml version="1.0" encoding="UTF-8"?>
<!-- Do not edit this file with editors other than draw.io -->
<!DOCTYPE svg PUBLIC "-//W3C//DTD SVG 1.1//EN" "http://www.w3.org/Graphics/SVG/1.1/DTD/svg11.dtd">
<svg xmlns="http://www.w3.org/2000/svg" style="background: transparent; background-color: transparent; color-scheme: light dark;" xmlns:xlink="http://www.w3.org/1999/xlink" version="1.1" width="631px" height="401px" viewBox="0 0 631 401" content="&lt;mxfile host=&quot;app.diagrams.net&quot;&gt;&#10;  &lt;diagram name=&quot;Page-1&quot; id=&quot;53dLS8Rb8NJyP_GcIN3t&quot;&gt;&#10;    &lt;mxGraphModel dx=&quot;1414&quot; dy=&quot;777&quot; grid=&quot;1&quot; gridSize=&quot;10&quot; guides=&quot;1&quot; tooltips=&quot;1&quot; connect=&quot;1&quot; arrows=&quot;1&quot; fold=&quot;1&quot; page=&quot;1&quot; pageScale=&quot;1&quot; pageWidth=&quot;827&quot; pageHeight=&quot;1169&quot; math=&quot;0&quot; shadow=&quot;0&quot;&gt;&#10;      &lt;root&gt;&#10;        &lt;mxCell id=&quot;0&quot; /&gt;&#10;        &lt;mxCell id=&quot;1&quot; parent=&quot;0&quot; /&gt;&#10;        &lt;mxCell id=&quot;07BJ7muAvloSLD9vEmXQ-1&quot; parent=&quot;1&quot; style=&quot;rounded=1;whiteSpace=wrap;html=1;&quot; value=&quot;&quot; vertex=&quot;1&quot;&gt;&#10;          &lt;mxGeometry height=&quot;400&quot; width=&quot;630&quot; x=&quot;90&quot; y=&quot;80&quot; as=&quot;geometry&quot; /&gt;&#10;        &lt;/mxCell&gt;&#10;        &lt;mxCell id=&quot;07BJ7muAvloSLD9vEmXQ-2&quot; parent=&quot;1&quot; style=&quot;rounded=1;whiteSpace=wrap;html=1;&quot; value=&quot;&quot; vertex=&quot;1&quot;&gt;&#10;          &lt;mxGeometry height=&quot;320&quot; width=&quot;256&quot; x=&quot;414&quot; y=&quot;120&quot; as=&quot;geometry&quot; /&gt;&#10;        &lt;/mxCell&gt;&#10;        &lt;mxCell id=&quot;07BJ7muAvloSLD9vEmXQ-4&quot; parent=&quot;1&quot; style=&quot;rounded=1;whiteSpace=wrap;html=1;&quot; value=&quot;Role&quot; vertex=&quot;1&quot;&gt;&#10;          &lt;mxGeometry height=&quot;30&quot; width=&quot;70&quot; x=&quot;440&quot; y=&quot;360&quot; as=&quot;geometry&quot; /&gt;&#10;        &lt;/mxCell&gt;&#10;        &lt;mxCell id=&quot;07BJ7muAvloSLD9vEmXQ-5&quot; parent=&quot;1&quot; style=&quot;rounded=1;whiteSpace=wrap;html=1;&quot; value=&quot;Role Binding&quot; vertex=&quot;1&quot;&gt;&#10;          &lt;mxGeometry height=&quot;30&quot; width=&quot;90&quot; x=&quot;550&quot; y=&quot;360&quot; as=&quot;geometry&quot; /&gt;&#10;        &lt;/mxCell&gt;&#10;        &lt;mxCell id=&quot;07BJ7muAvloSLD9vEmXQ-6&quot; parent=&quot;1&quot; style=&quot;rounded=1;whiteSpace=wrap;html=1;&quot; value=&quot;AWS Auth&quot; vertex=&quot;1&quot;&gt;&#10;          &lt;mxGeometry height=&quot;30&quot; width=&quot;90&quot; x=&quot;430&quot; y=&quot;185&quot; as=&quot;geometry&quot; /&gt;&#10;        &lt;/mxCell&gt;&#10;        &lt;mxCell id=&quot;07BJ7muAvloSLD9vEmXQ-7&quot; parent=&quot;1&quot; style=&quot;rounded=1;whiteSpace=wrap;html=1;&quot; value=&quot;&quot; vertex=&quot;1&quot;&gt;&#10;          &lt;mxGeometry height=&quot;320&quot; width=&quot;256&quot; x=&quot;140&quot; y=&quot;120&quot; as=&quot;geometry&quot; /&gt;&#10;        &lt;/mxCell&gt;&#10;        &lt;mxCell id=&quot;07BJ7muAvloSLD9vEmXQ-14&quot; edge=&quot;1&quot; parent=&quot;1&quot; source=&quot;07BJ7muAvloSLD9vEmXQ-8&quot; style=&quot;edgeStyle=orthogonalEdgeStyle;rounded=0;orthogonalLoop=1;jettySize=auto;html=1;entryX=0;entryY=0.5;entryDx=0;entryDy=0;&quot; target=&quot;07BJ7muAvloSLD9vEmXQ-6&quot;&gt;&#10;          &lt;mxGeometry relative=&quot;1&quot; as=&quot;geometry&quot; /&gt;&#10;        &lt;/mxCell&gt;&#10;        &lt;mxCell id=&quot;07BJ7muAvloSLD9vEmXQ-8&quot; parent=&quot;1&quot; style=&quot;html=1;verticalLabelPosition=bottom;align=center;labelBackgroundColor=#ffffff;verticalAlign=top;strokeWidth=2;strokeColor=#0080F0;shadow=0;dashed=0;shape=mxgraph.ios7.icons.user;&quot; value=&quot;&quot; vertex=&quot;1&quot;&gt;&#10;          &lt;mxGeometry height=&quot;60&quot; width=&quot;60&quot; x=&quot;310&quot; y=&quot;170&quot; as=&quot;geometry&quot; /&gt;&#10;        &lt;/mxCell&gt;&#10;        &lt;mxCell id=&quot;07BJ7muAvloSLD9vEmXQ-9&quot; parent=&quot;1&quot; style=&quot;sketch=0;outlineConnect=0;fontColor=#232F3E;gradientColor=none;fillColor=#7AA116;strokeColor=none;dashed=0;verticalLabelPosition=bottom;verticalAlign=top;align=center;html=1;fontSize=12;fontStyle=0;aspect=fixed;pointerEvents=1;shape=mxgraph.aws4.policy;&quot; value=&quot;&quot; vertex=&quot;1&quot;&gt;&#10;          &lt;mxGeometry height=&quot;67&quot; width=&quot;78&quot; x=&quot;170&quot; y=&quot;170&quot; as=&quot;geometry&quot; /&gt;&#10;        &lt;/mxCell&gt;&#10;        &lt;mxCell id=&quot;07BJ7muAvloSLD9vEmXQ-10&quot; edge=&quot;1&quot; parent=&quot;1&quot; source=&quot;07BJ7muAvloSLD9vEmXQ-9&quot; style=&quot;edgeStyle=orthogonalEdgeStyle;rounded=0;orthogonalLoop=1;jettySize=auto;html=1;entryX=0.083;entryY=0.55;entryDx=0;entryDy=0;entryPerimeter=0;&quot; target=&quot;07BJ7muAvloSLD9vEmXQ-8&quot;&gt;&#10;          &lt;mxGeometry relative=&quot;1&quot; as=&quot;geometry&quot; /&gt;&#10;        &lt;/mxCell&gt;&#10;        &lt;mxCell id=&quot;07BJ7muAvloSLD9vEmXQ-11&quot; parent=&quot;1&quot; style=&quot;aspect=fixed;sketch=0;html=1;dashed=0;whitespace=wrap;verticalLabelPosition=bottom;verticalAlign=top;fillColor=#2875E2;strokeColor=#ffffff;points=[[0.005,0.63,0],[0.1,0.2,0],[0.9,0.2,0],[0.5,0,0],[0.995,0.63,0],[0.72,0.99,0],[0.5,1,0],[0.28,0.99,0]];shape=mxgraph.kubernetes.icon2;prIcon=crb&quot; value=&quot;&quot; vertex=&quot;1&quot;&gt;&#10;          &lt;mxGeometry height=&quot;60&quot; width=&quot;62.5&quot; x=&quot;563.75&quot; y=&quot;290&quot; as=&quot;geometry&quot; /&gt;&#10;        &lt;/mxCell&gt;&#10;        &lt;mxCell id=&quot;07BJ7muAvloSLD9vEmXQ-13&quot; parent=&quot;1&quot; style=&quot;aspect=fixed;sketch=0;html=1;dashed=0;whitespace=wrap;verticalLabelPosition=bottom;verticalAlign=top;fillColor=#2875E2;strokeColor=#ffffff;points=[[0.005,0.63,0],[0.1,0.2,0],[0.9,0.2,0],[0.5,0,0],[0.995,0.63,0],[0.72,0.99,0],[0.5,1,0],[0.28,0.99,0]];shape=mxgraph.kubernetes.icon2;kubernetesLabel=1;prIcon=role&quot; value=&quot;&quot; vertex=&quot;1&quot;&gt;&#10;          &lt;mxGeometry height=&quot;58&quot; width=&quot;60.42&quot; x=&quot;444.79&quot; y=&quot;292&quot; as=&quot;geometry&quot; /&gt;&#10;        &lt;/mxCell&gt;&#10;        &lt;mxCell id=&quot;07BJ7muAvloSLD9vEmXQ-15&quot; edge=&quot;1&quot; parent=&quot;1&quot; source=&quot;07BJ7muAvloSLD9vEmXQ-6&quot; style=&quot;edgeStyle=orthogonalEdgeStyle;rounded=0;orthogonalLoop=1;jettySize=auto;html=1;entryX=0.5;entryY=0;entryDx=0;entryDy=0;entryPerimeter=0;&quot; target=&quot;07BJ7muAvloSLD9vEmXQ-13&quot;&gt;&#10;          &lt;mxGeometry relative=&quot;1&quot; as=&quot;geometry&quot;&gt;&#10;            &lt;mxPoint x=&quot;476&quot; y=&quot;280&quot; as=&quot;targetPoint&quot; /&gt;&#10;          &lt;/mxGeometry&gt;&#10;        &lt;/mxCell&gt;&#10;        &lt;mxCell id=&quot;07BJ7muAvloSLD9vEmXQ-16&quot; edge=&quot;1&quot; parent=&quot;1&quot; source=&quot;07BJ7muAvloSLD9vEmXQ-13&quot; style=&quot;edgeStyle=orthogonalEdgeStyle;rounded=0;orthogonalLoop=1;jettySize=auto;html=1;entryX=0.052;entryY=0.517;entryDx=0;entryDy=0;entryPerimeter=0;&quot; target=&quot;07BJ7muAvloSLD9vEmXQ-11&quot;&gt;&#10;          &lt;mxGeometry relative=&quot;1&quot; as=&quot;geometry&quot; /&gt;&#10;        &lt;/mxCell&gt;&#10;        &lt;mxCell id=&quot;07BJ7muAvloSLD9vEmXQ-17&quot; parent=&quot;1&quot; style=&quot;rounded=1;whiteSpace=wrap;html=1;&quot; value=&quot;User&quot; vertex=&quot;1&quot;&gt;&#10;          &lt;mxGeometry height=&quot;30&quot; width=&quot;70&quot; x=&quot;310&quot; y=&quot;237&quot; as=&quot;geometry&quot; /&gt;&#10;        &lt;/mxCell&gt;&#10;        &lt;mxCell id=&quot;07BJ7muAvloSLD9vEmXQ-18&quot; parent=&quot;1&quot; style=&quot;rounded=1;whiteSpace=wrap;html=1;&quot; value=&quot;Policy&quot; vertex=&quot;1&quot;&gt;&#10;          &lt;mxGeometry height=&quot;30&quot; width=&quot;70&quot; x=&quot;170&quot; y=&quot;240&quot; as=&quot;geometry&quot; /&gt;&#10;        &lt;/mxCell&gt;&#10;        &lt;mxCell id=&quot;07BJ7muAvloSLD9vEmXQ-19&quot; parent=&quot;1&quot; style=&quot;text;html=1;whiteSpace=wrap;strokeColor=none;fillColor=none;align=center;verticalAlign=middle;rounded=0;&quot; value=&quot;DescribeCluster&amp;amp;nbsp;&amp;lt;br&amp;gt;policy&quot; vertex=&quot;1&quot;&gt;&#10;          &lt;mxGeometry height=&quot;30&quot; width=&quot;60&quot; x=&quot;238&quot; y=&quot;155&quot; as=&quot;geometry&quot; /&gt;&#10;        &lt;/mxCell&gt;&#10;        &lt;mxCell id=&quot;07BJ7muAvloSLD9vEmXQ-20&quot; parent=&quot;1&quot; style=&quot;text;html=1;whiteSpace=wrap;strokeColor=none;fillColor=none;align=center;verticalAlign=middle;rounded=0;&quot; value=&quot;&amp;lt;b&amp;gt;User / Group Role Base Access Control&amp;lt;/b&amp;gt;&quot; vertex=&quot;1&quot;&gt;&#10;          &lt;mxGeometry height=&quot;30&quot; width=&quot;240&quot; x=&quot;285&quot; y=&quot;80&quot; as=&quot;geometry&quot; /&gt;&#10;        &lt;/mxCell&gt;&#10;      &lt;/root&gt;&#10;    &lt;/mxGraphModel&gt;&#10;  &lt;/diagram&gt;&#10;&lt;/mxfile&gt;&#10;"><defs/><g><g data-cell-id="0"><g data-cell-id="1"><g data-cell-id="07BJ7muAvloSLD9vEmXQ-1"><g transform="translate(0.5,0.5)"><rect x="0" y="0" width="630" height="400" rx="60" ry="60" fill="#ffffff" stroke="#000000" pointer-events="all" style="fill: light-dark(#ffffff, var(--ge-dark-color, #121212)); stroke: light-dark(rgb(0, 0, 0), rgb(255, 255, 255));"/></g></g><g data-cell-id="07BJ7muAvloSLD9vEmXQ-2"><g transform="translate(0.5,0.5)"><rect x="324" y="40" width="256" height="320" rx="38.4" ry="38.4" fill="#ffffff" stroke="#000000" pointer-events="all" style="fill: light-dark(#ffffff, var(--ge-dark-color, #121212)); stroke: light-dark(rgb(0, 0, 0), rgb(255, 255, 255));"/></g></g><g data-cell-id="07BJ7muAvloSLD9vEmXQ-4"><g transform="translate(0.5,0.5)"><rect x="350" y="280" width="70" height="30" rx="4.5" ry="4.5" fill="#ffffff" stroke="#000000" pointer-events="all" style="fill: light-dark(#ffffff, var(--ge-dark-color, #121212)); stroke: light-dark(rgb(0, 0, 0), rgb(255, 255, 255));"/></g><g><g><switch><foreignObject style="overflow: visible; text-align: left;" pointer-events="none" width="100%" height="100%" requiredFeatures="http://www.w3.org/TR/SVG11/feature#Extensibility"><div xmlns="http://www.w3.org/1999/xhtml" style="display: flex; align-items: unsafe center; justify-content: unsafe center; width: 68px; height: 1px; padding-top: 295px; margin-left: 351px;"><div style="box-sizing: border-box; font-size: 0; text-align: center; color: #000000; "><div style="display: inline-block; font-size: 12px; font-family: Helvetica; color: light-dark(#000000, #ffffff); line-height: 1.2; pointer-events: all; white-space: normal; word-wrap: normal; ">Role</div></div></div></foreignObject><text x="385" y="299" fill="light-dark(#000000, #ffffff)" font-family="Helvetica" font-size="12px" text-anchor="middle">Role</text></switch></g></g></g><g data-cell-id="07BJ7muAvloSLD9vEmXQ-5"><g transform="translate(0.5,0.5)"><rect x="460" y="280" width="90" height="30" rx="4.5" ry="4.5" fill="#ffffff" stroke="#000000" pointer-events="all" style="fill: light-dark(#ffffff, var(--ge-dark-color, #121212)); stroke: light-dark(rgb(0, 0, 0), rgb(255, 255, 255));"/></g><g><g><switch><foreignObject style="overflow: visible; text-align: left;" pointer-events="none" width="100%" height="100%" requiredFeatures="http://www.w3.org/TR/SVG11/feature#Extensibility"><div xmlns="http://www.w3.org/1999/xhtml" style="display: flex; align-items: unsafe center; justify-content: unsafe center; width: 88px; height: 1px; padding-top: 295px; margin-left: 461px;"><div style="box-sizing: border-box; font-size: 0; text-align: center; color: #000000; "><div style="display: inline-block; font-size: 12px; font-family: Helvetica; color: light-dark(#000000, #ffffff); line-height: 1.2; pointer-events: all; white-space: normal; word-wrap: normal; ">Role Binding</div></div></div></foreignObject><text x="505" y="299" fill="light-dark(#000000, #ffffff)" font-family="Helvetica" font-size="12px" text-anchor="middle">Role Binding</text></switch></g></g></g><g data-cell-id="07BJ7muAvloSLD9vEmXQ-6"><g transform="translate(0.5,0.5)"><rect x="340" y="105" width="90" height="30" rx="4.5" ry="4.5" fill="#ffffff" stroke="#000000" pointer-events="all" style="fill: light-dark(#ffffff, var(--ge-dark-color, #121212)); stroke: light-dark(rgb(0, 0, 0), rgb(255, 255, 255));"/></g><g><g><switch><foreignObject style="overflow: visible; text-align: left;" pointer-events="none" width="100%" height="100%" requiredFeatures="http://www.w3.org/TR/SVG11/feature#Extensibility"><div xmlns="http://www.w3.org/1999/xhtml" style="display: flex; align-items: unsafe center; justify-content: unsafe center; width: 88px; height: 1px; padding-top: 120px; margin-left: 341px;"><div style="box-sizing: border-box; font-size: 0; text-align: center; color: #000000; "><div style="display: inline-block; font-size: 12px; font-family: Helvetica; color: light-dark(#000000, #ffffff); line-height: 1.2; pointer-events: all; white-space: normal; word-wrap: normal; ">AWS Auth</div></div></div></foreignObject><text x="385" y="124" fill="light-dark(#000000, #ffffff)" font-family="Helvetica" font-size="12px" text-anchor="middle">AWS Auth</text></switch></g></g></g><g data-cell-id="07BJ7muAvloSLD9vEmXQ-7"><g transform="translate(0.5,0.5)"><rect x="50" y="40" width="256" height="320" rx="38.4" ry="38.4" fill="#ffffff" stroke="#000000" pointer-events="all" style="fill: light-dark(#ffffff, var(--ge-dark-color, #121212)); stroke: light-dark(rgb(0, 0, 0), rgb(255, 255, 255));"/></g></g><g data-cell-id="07BJ7muAvloSLD9vEmXQ-14"><g transform="translate(0.5,0.5)"><path d="M 280 120 L 333.63 120" fill="none" stroke="#000000" stroke-miterlimit="10" pointer-events="stroke" style="stroke: light-dark(rgb(0, 0, 0), rgb(255, 255, 255));"/><path d="M 338.88 120 L 331.88 123.5 L 333.63 120 L 331.88 116.5 Z" fill="#000000" stroke="#000000" stroke-miterlimit="10" pointer-events="all" style="fill: light-dark(rgb(0, 0, 0), rgb(255, 255, 255)); stroke: light-dark(rgb(0, 0, 0), rgb(255, 255, 255));"/></g></g><g data-cell-id="07BJ7muAvloSLD9vEmXQ-8"><g><ellipse cx="250" cy="120" rx="30" ry="30" fill="#ffffff" stroke="#0080f0" stroke-width="2" pointer-events="all" style="fill: light-dark(#ffffff, var(--ge-dark-color, #121212)); stroke: light-dark(rgb(0, 128, 240), rgb(50, 160, 255));"/><path d="M 226 138 C 227.64 133.96 234.56 130.99 242.8 130.8 C 243.33 130.89 243.87 130.74 244.27 130.39 C 244.68 130.04 244.91 129.53 244.9 129 C 245.31 125.17 243.86 121.38 241 118.8 C 240.27 118.8 239.68 117.32 239.68 115.5 C 239.68 113.68 240.27 112.2 241 112.2 C 240.66 109.55 241.44 106.89 243.15 104.84 C 244.86 102.79 247.34 101.55 250 101.4 C 252.66 101.55 255.14 102.79 256.85 104.84 C 258.56 106.89 259.34 109.55 259 112.2 C 259.73 112.2 260.32 113.68 260.32 115.5 C 260.32 117.32 259.73 118.8 259 118.8 C 256.14 121.38 254.69 125.17 255.1 129 C 255.09 129.53 255.32 130.04 255.73 130.39 C 256.13 130.74 256.67 130.89 257.2 130.8 C 265.44 130.99 272.36 133.96 274 138" fill="none" stroke="#0080f0" stroke-width="2" stroke-miterlimit="10" pointer-events="all" style="stroke: light-dark(rgb(0, 128, 240), rgb(50, 160, 255));"/></g></g><g data-cell-id="07BJ7muAvloSLD9vEmXQ-9"><g transform="translate(0.5,0.5)"><rect x="80" y="90" width="78" height="67" fill="none" stroke="none" pointer-events="all"/><path d="M 127.04 137.41 C 127.04 138.61 128.01 139.58 129.21 139.58 C 130.41 139.58 131.38 138.61 131.38 137.41 C 131.38 136.22 130.41 135.25 129.21 135.25 C 128.01 135.25 127.04 136.22 127.04 137.41 Z M 149.84 136.86 L 148.66 136.86 C 148.24 136.86 147.83 136.71 147.5 136.44 L 146.78 135.81 L 146.06 136.44 C 145.74 136.71 145.33 136.86 144.91 136.86 L 143.66 136.86 C 143.23 136.86 142.82 136.71 142.5 136.44 L 141.78 135.81 L 141.06 136.44 C 140.74 136.71 140.33 136.86 139.9 136.86 L 137.68 136.86 C 136.93 136.86 136.26 136.39 136.01 135.68 C 135.3 133.65 133.16 132.22 130.83 132.22 C 127.84 132.22 125.41 134.55 125.41 137.41 C 125.41 140.28 127.84 142.61 130.83 142.61 C 133.16 142.61 135.3 141.19 136.01 139.15 C 136.26 138.44 136.93 137.96 137.68 137.96 L 150.32 137.96 L 150.62 137.59 Z M 152.54 140.85 C 152.2 141.26 151.7 141.51 151.16 141.51 L 138.82 141.51 C 137.3 144.29 134.19 146.15 130.83 146.15 C 125.89 146.15 121.87 142.23 121.87 137.41 C 121.87 132.6 125.89 128.68 130.83 128.68 C 134.19 128.68 137.3 130.54 138.82 133.32 L 139.25 133.32 L 140.63 132.14 C 141.29 131.57 142.27 131.57 142.94 132.14 L 144.28 133.29 L 145.63 132.14 C 146.29 131.57 147.27 131.57 147.94 132.14 L 149.32 133.32 L 150.54 133.32 C 150.98 133.32 151.41 133.49 151.74 133.8 L 154.24 136.11 C 154.29 136.16 154.3 136.21 154.34 136.25 C 154.12 127.18 146.69 119.87 137.57 119.87 C 128.3 119.87 120.77 127.4 120.77 136.66 C 120.77 145.92 128.3 153.46 137.57 153.46 C 146.11 153.46 153.17 147.04 154.21 138.77 Z M 137.57 157 C 126.35 157 117.23 147.88 117.23 136.66 C 117.23 125.45 126.35 116.33 137.57 116.33 C 148.78 116.33 157.9 125.45 157.9 136.66 C 157.9 147.88 148.78 157 137.57 157 Z M 91.93 144.05 C 92.27 144.4 92.73 144.6 93.21 144.6 C 93.7 144.6 94.16 144.4 94.5 144.05 L 104.81 133.22 L 102.25 130.78 L 93.21 140.26 L 89.34 136.19 L 86.77 138.63 Z M 90.85 127.06 L 95.02 122.9 L 99.18 127.06 L 101.68 124.56 L 97.52 120.39 L 101.68 116.23 L 99.18 113.73 L 95.02 117.89 L 90.85 113.73 L 88.35 116.23 L 92.51 120.39 L 88.35 124.56 Z M 90.85 110.04 L 95.02 105.88 L 99.18 110.04 L 101.68 107.54 L 97.52 103.38 L 101.68 99.21 L 99.18 96.71 L 95.02 100.87 L 90.85 96.71 L 88.35 99.21 L 92.51 103.38 L 88.35 107.54 Z M 117.03 145.7 L 117.03 149.24 L 83.91 149.24 C 81.81 149.24 80.1 147.53 80.1 145.43 L 80.1 93.81 C 80.1 91.71 81.81 90 83.91 90 L 121.6 90 C 123.7 90 125.41 91.71 125.41 93.81 L 125.41 118.09 L 121.87 118.09 L 121.87 93.81 C 121.87 93.66 121.75 93.54 121.6 93.54 L 83.91 93.54 C 83.76 93.54 83.64 93.66 83.64 93.81 L 83.64 145.43 C 83.64 145.58 83.76 145.7 83.91 145.7 Z" fill="#7aa116" stroke="none" pointer-events="all" style="fill: light-dark(rgb(122, 161, 22), rgb(97, 130, 11));"/></g></g><g data-cell-id="07BJ7muAvloSLD9vEmXQ-10"><g transform="translate(0.5,0.5)"><path d="M 157.9 123.5 L 189 123.5 L 218.61 123.09" fill="none" stroke="#000000" stroke-miterlimit="10" pointer-events="stroke" style="stroke: light-dark(rgb(0, 0, 0), rgb(255, 255, 255));"/><path d="M 223.86 123.02 L 216.91 126.61 L 218.61 123.09 L 216.81 119.61 Z" fill="#000000" stroke="#000000" stroke-miterlimit="10" pointer-events="all" style="fill: light-dark(rgb(0, 0, 0), rgb(255, 255, 255)); stroke: light-dark(rgb(0, 0, 0), rgb(255, 255, 255));"/></g></g><g data-cell-id="07BJ7muAvloSLD9vEmXQ-11"><g transform="translate(0.5,0.5)"><path d="M 504.78 210.03 C 504.23 210.07 503.68 210.21 503.2 210.45 L 481.72 220.69 C 480.59 221.24 479.76 222.27 479.49 223.47 L 474.18 246.53 C 473.94 247.59 474.14 248.72 474.73 249.65 C 474.83 249.75 474.9 249.85 474.97 249.99 L 489.84 268.46 C 490.63 269.42 491.82 270 493.06 270 L 516.91 270 C 518.14 270 519.34 269.42 520.13 268.46 L 535 249.95 C 535.75 248.99 536.06 247.73 535.79 246.53 L 530.48 223.47 C 530.2 222.27 529.38 221.24 528.25 220.69 L 506.76 210.45 C 506.15 210.14 505.46 210 504.78 210.03 Z" fill="#ffffff" stroke="none" pointer-events="all" style="fill: light-dark(rgb(255, 255, 255), rgb(18, 18, 18));"/><path d="M 504.79 211.83 C 504.28 211.86 503.76 211.99 503.31 212.22 L 483.11 221.85 C 482.05 222.36 481.28 223.33 481.02 224.46 L 476.03 246.14 C 475.8 247.13 475.99 248.2 476.54 249.07 C 476.64 249.16 476.7 249.26 476.77 249.39 L 490.75 266.75 C 491.49 267.65 492.62 268.2 493.77 268.2 L 516.19 268.2 C 517.35 268.2 518.48 267.65 519.22 266.75 L 533.2 249.36 C 533.91 248.46 534.2 247.26 533.94 246.14 L 528.95 224.46 C 528.69 223.33 527.92 222.36 526.85 221.85 L 506.66 212.22 C 506.08 211.93 505.43 211.8 504.79 211.83 Z" fill="#2875e2" stroke="none" pointer-events="all" style="fill: light-dark(rgb(40, 117, 226), rgb(85, 151, 245));"/><path d="M 493.74 237 C 493.75 234.62 495.67 232.7 498.05 232.69 L 503.61 232.69 L 503.61 230.05 L 498.05 230.05 C 496.2 230.05 494.44 230.78 493.13 232.08 C 491.83 233.39 491.1 235.16 491.1 237 C 491.1 238.84 491.83 240.61 493.13 241.92 C 494.44 243.22 496.2 243.95 498.05 243.95 L 503.61 243.95 L 503.61 241.31 L 498.05 241.31 C 495.67 241.3 493.75 239.38 493.74 237 Z M 499.44 238.39 L 510.56 238.39 L 510.56 235.61 L 499.44 235.61 Z M 511.95 230.05 L 506.39 230.05 L 506.39 232.69 L 511.95 232.69 C 514.33 232.7 516.25 234.62 516.26 237 C 516.25 239.38 514.33 241.3 511.95 241.31 L 506.39 241.31 L 506.39 243.95 L 511.95 243.95 C 515.79 243.95 518.9 240.84 518.9 237 C 518.9 233.16 515.79 230.05 511.95 230.05 Z" fill="#ffffff" stroke="none" pointer-events="all" style="fill: light-dark(rgb(255, 255, 255), rgb(18, 18, 18));"/></g></g><g data-cell-id="07BJ7muAvloSLD9vEmXQ-13"><g transform="translate(0.5,0.5)"><path d="M 384.78 212.03 C 384.25 212.07 383.72 212.2 383.26 212.43 L 362.49 222.33 C 361.4 222.86 360.6 223.86 360.34 225.02 L 355.21 247.31 C 354.97 248.34 355.17 249.43 355.74 250.32 C 355.83 250.42 355.9 250.52 355.97 250.66 L 370.34 268.51 C 371.1 269.44 372.26 270 373.46 270 L 396.51 270 C 397.7 270 398.86 269.44 399.62 268.51 L 414 250.62 C 414.73 249.7 415.03 248.47 414.76 247.31 L 409.63 225.02 C 409.36 223.86 408.57 222.86 407.47 222.33 L 386.71 212.43 C 386.11 212.13 385.45 212 384.78 212.03 Z" fill="#ffffff" stroke="none" pointer-events="all" style="fill: light-dark(rgb(255, 255, 255), rgb(18, 18, 18));"/><path d="M 384.8 213.77 C 384.3 213.8 383.8 213.93 383.37 214.14 L 363.84 223.45 C 362.82 223.95 362.07 224.89 361.82 225.98 L 356.99 246.93 C 356.77 247.9 356.96 248.92 357.49 249.76 C 357.58 249.86 357.65 249.95 357.71 250.08 L 371.22 266.86 C 371.94 267.73 373.03 268.26 374.15 268.26 L 395.82 268.26 C 396.94 268.26 398.03 267.73 398.75 266.86 L 412.26 250.05 C 412.95 249.17 413.23 248.02 412.98 246.93 L 408.15 225.98 C 407.9 224.89 407.15 223.95 406.13 223.45 L 386.6 214.14 C 386.04 213.86 385.42 213.74 384.8 213.77 Z" fill="#2875e2" stroke="none" pointer-events="all" style="fill: light-dark(rgb(40, 117, 226), rgb(85, 151, 245));"/><path d="M 371.62 223.93 C 371.31 223.93 371.08 224.17 371.08 224.46 L 371.08 225.47 L 372.16 225.47 L 372.16 225 L 372.69 225 L 372.69 223.93 Z M 373.77 223.93 L 373.77 225 L 375.93 225 L 375.93 223.93 Z M 377.01 223.93 L 377.01 225 L 379.16 225 L 379.16 223.93 Z M 380.24 223.93 L 380.24 225 L 382.4 225 L 382.4 223.93 Z M 383.48 223.93 L 383.48 225 L 385.63 225 L 385.63 223.93 Z M 386.71 223.93 L 386.71 225 L 388.86 225 L 388.86 223.93 Z M 389.94 223.93 L 389.94 225 L 392.1 225 L 392.1 223.93 Z M 393.17 223.93 L 393.17 225 L 395.33 225 L 395.33 223.93 Z M 396.41 223.93 L 396.41 225 L 398.91 225 L 398.91 224.46 C 398.91 224.16 398.67 223.92 398.38 223.93 Z M 385.28 225.59 L 376.91 229.3 L 376.91 234.83 C 376.91 239.95 380.48 244.74 385.28 245.9 C 390.08 244.74 393.66 239.95 393.66 234.83 L 393.66 229.3 Z M 397.84 225.73 L 397.84 227.88 L 398.92 227.88 L 398.92 225.73 Z M 371.08 226.55 L 371.08 228.7 L 372.16 228.7 L 372.16 226.55 Z M 397.84 228.97 L 397.84 231.12 L 398.92 231.12 L 398.92 228.97 Z M 385.33 229.03 C 387.1 229.03 388.53 230.45 388.53 232.21 L 388.53 233.02 L 389.72 233.02 L 389.72 240.47 L 380.85 240.47 L 380.85 233.02 L 382.12 233.02 L 382.12 232.21 C 382.12 230.45 383.55 229.03 385.33 229.03 Z M 371.08 229.78 L 371.08 231.94 L 372.16 231.94 L 372.16 229.78 Z M 385.28 230.21 C 384.22 230.22 383.36 231.07 383.36 232.12 L 383.36 232.92 L 387.21 232.92 L 387.21 232.11 C 387.19 231.06 386.34 230.22 385.28 230.21 Z M 397.84 232.2 L 397.84 234.35 L 398.92 234.35 L 398.92 232.2 Z M 371.08 233.02 L 371.08 235.17 L 372.16 235.17 L 372.16 233.02 Z M 385.12 235.22 C 384.76 235.22 384.41 235.36 384.16 235.61 C 383.9 235.87 383.76 236.21 383.76 236.57 C 383.76 236.93 383.9 237.27 384.16 237.53 C 384.41 237.78 384.76 237.92 385.12 237.92 C 385.87 237.92 386.49 237.32 386.49 236.57 C 386.49 235.82 385.88 235.22 385.12 235.22 Z M 397.84 235.43 L 397.84 237.59 L 398.92 237.59 L 398.92 235.43 Z M 371.08 236.25 L 371.08 238.41 L 372.16 238.41 L 372.16 236.25 Z M 397.84 238.66 L 397.84 240.82 L 398.92 240.82 L 398.92 238.66 Z M 371.08 239.48 L 371.08 241.64 L 372.16 241.64 L 372.16 239.48 Z M 397.84 241.9 L 397.84 244.05 L 398.92 244.05 L 398.92 241.9 Z M 371.08 242.72 L 371.08 244.87 L 372.16 244.87 L 372.16 242.72 Z M 397.84 245.13 L 397.84 247.25 L 395.65 247.25 L 395.65 248.33 L 397.8 248.33 C 398.43 248.33 398.92 247.89 398.92 247.29 L 398.92 245.13 Z M 371.08 245.95 L 371.08 247.8 C 371.08 248.09 371.32 248.33 371.62 248.33 L 372.16 248.33 L 372.16 245.95 Z M 373.01 247.25 L 373.01 248.33 L 375.17 248.33 L 375.17 247.25 Z M 376.24 247.25 L 376.24 248.33 L 378.4 248.33 L 378.4 247.25 Z M 379.48 247.25 L 379.48 248.33 L 381.63 248.33 L 381.63 247.25 Z M 382.71 247.25 L 382.71 248.33 L 384.87 248.33 L 384.87 247.25 Z M 385.94 247.25 L 385.94 248.33 L 388.1 248.33 L 388.1 247.25 Z M 389.18 247.25 L 389.18 248.33 L 391.33 248.33 L 391.33 247.25 Z M 392.41 247.25 L 392.41 248.33 L 394.57 248.33 L 394.57 247.25 Z" fill="#ffffff" stroke="none" pointer-events="all" style="fill: light-dark(rgb(255, 255, 255), rgb(18, 18, 18));"/><g fill="#ffffff" font-family="Arial, Helvetica" text-anchor="middle" font-size="11.600000000000001px" style="fill: light-dark(rgb(255, 255, 255), rgb(18, 18, 18));"><text x="385" y="260.3">role</text></g></g></g><g data-cell-id="07BJ7muAvloSLD9vEmXQ-15"><g transform="translate(0.5,0.5)"><path d="M 385 135 L 385 205.63" fill="none" stroke="#000000" stroke-miterlimit="10" pointer-events="stroke" style="stroke: light-dark(rgb(0, 0, 0), rgb(255, 255, 255));"/><path d="M 385 210.88 L 381.5 203.88 L 385 205.63 L 388.5 203.88 Z" fill="#000000" stroke="#000000" stroke-miterlimit="10" pointer-events="all" style="fill: light-dark(rgb(0, 0, 0), rgb(255, 255, 255)); stroke: light-dark(rgb(0, 0, 0), rgb(255, 255, 255));"/></g></g><g data-cell-id="07BJ7muAvloSLD9vEmXQ-16"><g transform="translate(0.5,0.5)"><path d="M 415.21 241.02 L 470.63 241.02" fill="none" stroke="#000000" stroke-miterlimit="10" pointer-events="stroke" style="stroke: light-dark(rgb(0, 0, 0), rgb(255, 255, 255));"/><path d="M 475.88 241.02 L 468.88 244.52 L 470.63 241.02 L 468.88 237.52 Z" fill="#000000" stroke="#000000" stroke-miterlimit="10" pointer-events="all" style="fill: light-dark(rgb(0, 0, 0), rgb(255, 255, 255)); stroke: light-dark(rgb(0, 0, 0), rgb(255, 255, 255));"/></g></g><g data-cell-id="07BJ7muAvloSLD9vEmXQ-17"><g transform="translate(0.5,0.5)"><rect x="220" y="157" width="70" height="30" rx="4.5" ry="4.5" fill="#ffffff" stroke="#000000" pointer-events="all" style="fill: light-dark(#ffffff, var(--ge-dark-color, #121212)); stroke: light-dark(rgb(0, 0, 0), rgb(255, 255, 255));"/></g><g><g><switch><foreignObject style="overflow: visible; text-align: left;" pointer-events="none" width="100%" height="100%" requiredFeatures="http://www.w3.org/TR/SVG11/feature#Extensibility"><div xmlns="http://www.w3.org/1999/xhtml" style="display: flex; align-items: unsafe center; justify-content: unsafe center; width: 68px; height: 1px; padding-top: 172px; margin-left: 221px;"><div style="box-sizing: border-box; font-size: 0; text-align: center; color: #000000; "><div style="display: inline-block; font-size: 12px; font-family: Helvetica; color: light-dark(#000000, #ffffff); line-height: 1.2; pointer-events: all; white-space: normal; word-wrap: normal; ">User</div></div></div></foreignObject><text x="255" y="176" fill="light-dark(#000000, #ffffff)" font-family="Helvetica" font-size="12px" text-anchor="middle">User</text></switch></g></g></g><g data-cell-id="07BJ7muAvloSLD9vEmXQ-18"><g transform="translate(0.5,0.5)"><rect x="80" y="160" width="70" height="30" rx="4.5" ry="4.5" fill="#ffffff" stroke="#000000" pointer-events="all" style="fill: light-dark(#ffffff, var(--ge-dark-color, #121212)); stroke: light-dark(rgb(0, 0, 0), rgb(255, 255, 255));"/></g><g><g><switch><foreignObject style="overflow: visible; text-align: left;" pointer-events="none" width="100%" height="100%" requiredFeatures="http://www.w3.org/TR/SVG11/feature#Extensibility"><div xmlns="http://www.w3.org/1999/xhtml" style="display: flex; align-items: unsafe center; justify-content: unsafe center; width: 68px; height: 1px; padding-top: 175px; margin-left: 81px;"><div style="box-sizing: border-box; font-size: 0; text-align: center; color: #000000; "><div style="display: inline-block; font-size: 12px; font-family: Helvetica; color: light-dark(#000000, #ffffff); line-height: 1.2; pointer-events: all; white-space: normal; word-wrap: normal; ">Policy</div></div></div></foreignObject><text x="115" y="179" fill="light-dark(#000000, #ffffff)" font-family="Helvetica" font-size="12px" text-anchor="middle">Policy</text></switch></g></g></g><g data-cell-id="07BJ7muAvloSLD9vEmXQ-19"><g transform="translate(0.5,0.5)"><rect x="148" y="75" width="60" height="30" fill="none" stroke="none" pointer-events="all"/></g><g><g><switch><foreignObject style="overflow: visible; text-align: left;" pointer-events="none" width="100%" height="100%" requiredFeatures="http://www.w3.org/TR/SVG11/feature#Extensibility"><div xmlns="http://www.w3.org/1999/xhtml" style="display: flex; align-items: unsafe center; justify-content: unsafe center; width: 58px; height: 1px; padding-top: 90px; margin-left: 149px;"><div style="box-sizing: border-box; font-size: 0; text-align: center; color: #000000; "><div style="display: inline-block; font-size: 12px; font-family: Helvetica; color: light-dark(#000000, #ffffff); line-height: 1.2; pointer-events: all; white-space: normal; word-wrap: normal; ">DescribeCluster <br />policy</div></div></div></foreignObject><text x="178" y="94" fill="light-dark(#000000, #ffffff)" font-family="Helvetica" font-size="12px" text-anchor="middle">DescribeCl...</text></switch></g></g></g><g data-cell-id="07BJ7muAvloSLD9vEmXQ-20"><g transform="translate(0.5,0.5)"><rect x="195" y="0" width="240" height="30" fill="none" stroke="none" pointer-events="all"/></g><g><g><switch><foreignObject style="overflow: visible; text-align: left;" pointer-events="none" width="100%" height="100%" requiredFeatures="http://www.w3.org/TR/SVG11/feature#Extensibility"><div xmlns="http://www.w3.org/1999/xhtml" style="display: flex; align-items: unsafe center; justify-content: unsafe center; width: 238px; height: 1px; padding-top: 15px; margin-left: 196px;"><div style="box-sizing: border-box; font-size: 0; text-align: center; color: #000000; "><div style="display: inline-block; font-size: 12px; font-family: Helvetica; color: light-dark(#000000, #ffffff); line-height: 1.2; pointer-events: all; white-space: normal; word-wrap: normal; "><b>User / Group Role Base Access Control</b></div></div></div></foreignObject><text x="315" y="19" fill="light-dark(#000000, #ffffff)" font-family="Helvetica" font-size="12px" text-anchor="middle">User / Group Role Base Access Control</text></switch></g></g></g></g></g></g><switch><g requiredFeatures="http://www.w3.org/TR/SVG11/feature#Extensibility"/><a transform="translate(0,-5)" xlink:href="https://www.drawio.com/doc/faq/svg-export-text-problems" target="_blank"><text text-anchor="middle" font-size="10px" x="50%" y="100%">Text is not SVG - cannot display</text></a></switch></svg>